:SAMPLES-PER-SECOND 30
:FRAME-RANGE 1-2045
:FULLY-SPECIFIED
:DEGREES
1534
root  -89.9838 35.4085 -21.7865 -177.809 45.591 -178.372
RightUpLeg  -38.3564 -16.5369 -10.0433
RightLeg  21.4917 -12.5611 -5.60018
RightFoot  -8.95372 -0.321549 12.4521
RightToes  5.82063e-011 0 -3.6325e-017
Spine  20.7939 -1.85926 -6.47943
Spine1  2.1095 -4.12777 6.09124
HEad  -5.2111 -23.4776 11.3182
LeftShoulder1  2.18789 -4.61926 -20.5171
LeftArm  6.63755 -57.227 -43.7003
LeftForeArm  9.47517 -3.0977 -17.6272
LeftHand  0.151076 -0.997017 -2.66294
RightShoulder  6.97623 9.34805 47.5431
RightArm  10.3567 -2.50602 14.7706
RightForeArm  -25.0293 42.4304 11.6635
RightHand  0.50647 0.389597 10.1541
LeftUpLeg  -11.4194 17.3333 15.7098
LeftLeg  44.9927 -7.23203 -7.2797
LeftFoot  -31.0182 -2.75354 -16.8479
LeftToes  -3.90176e-010 -2.48536e-010 1.05482e-011
1535
root  -88.9412 34.7445 -22.1805 -179.021 46.0183 -179.581
RightUpLeg  -39.1762 -15.5208 -11.5049
RightLeg  24.7803 -12.7906 -6.58011
RightFoot  -9.54828 -0.251254 11.8546
RightToes  5.82063e-011 0 -3.6325e-017
Spine  20.7914 -1.787 -7.10345
Spine1  2.43697 -4.19637 6.31187
HEad  -4.90675 -23.0641 10.3571
LeftShoulder1  2.25086 -4.93622 -20.2345
LeftArm  16.5788 -59.581 -51.6258
LeftForeArm  6.72537 -5.66159 -17.2778
LeftHand  0.148564 -1.2163 -2.50782
RightShoulder  7.34781 9.98319 47.7162
RightArm  8.87787 -1.63223 14.1287
RightForeArm  -25.9334 42.1793 11.6105
RightHand  0.481722 0.362428 9.70755
LeftUpLeg  -9.81218 16.5722 16.3702
LeftLeg  47.12 -6.92476 -7.50731
LeftFoot  -33.8786 -3.30584 -17.4987
LeftToes  -3.90176e-010 -2.48536e-010 1.05482e-011
1536
root  -87.7801 34.3378 -22.5943 -178.978 46.5986 179.667
RightUpLeg  -41.366 -15.9156 -11.1272
RightLeg  29.6032 -12.9097 -8.04299
RightFoot  -6.62849 -0.477118 10.4676
RightToes  5.82063e-011 0 -3.6325e-017
Spine  21.0452 -1.65002 -6.74839
Spine1  1.80638 -4.32077 7.40822
HEad  -4.62469 -22.403 9.06691
LeftShoulder1  2.30297 -5.17192 -20.1026
LeftArm  29.7984 -60.7555 -59.7645
LeftForeArm  1.61153 -8.72279 -16.6131
LeftHand  0.171765 -1.51556 -2.76179
RightShoulder  7.23616 9.81396 47.5874
RightArm  7.35229 -0.846938 13.6138
RightForeArm  -26.9858 42.7936 11.8951
RightHand  0.426086 0.15189 8.94101
LeftUpLeg  -8.05314 15.5527 16.9743
LeftLeg  47.0457 -6.57011 -7.08954
LeftFoot  -35.7494 -3.91476 -18.9485
LeftToes  -3.90176e-010 -2.48536e-010 1.05482e-011
1537
root  -86.2576 34.0366 -23.0399 -179.033 47.5423 177.698
RightUpLeg  -45.4219 -16.7048 -11.1443
RightLeg  36.7901 -11.1867 -9.10363
RightFoot  -5.00768 -0.604492 10.2812
RightToes  5.82063e-011 0 -3.6325e-017
Spine  20.2597 -1.65001 -7.1617
Spine1  0.4241 -4.1595 7.57391
HEad  -5.24763 -21.3064 7.58328
LeftShoulder1  2.29175 -5.1898 -19.9057
LeftArm  44.4064 -61.1833 -65.8425
LeftForeArm  -3.79243 -12.4307 -15.0648
LeftHand  0.216041 -2.21507 -3.12406
RightShoulder  7.27563 9.93677 47.406
RightArm  5.61711 -0.0294245 13.0265
RightForeArm  -27.0612 42.8618 11.9251
RightHand  0.412727 0.232978 8.52572
LeftUpLeg  -5.50387 15.2067 16.8959
LeftLeg  44.6918 -6.3972 -6.33326
LeftFoot  -36.7633 -4.46547 -20.5888
LeftToes  -3.90176e-010 -2.48536e-010 1.05482e-011
1538
root  -84.4824 33.9476 -23.5479 -178.462 49.3013 176.815
RightUpLeg  -48.3401 -17.5855 -9.32339
RightLeg  43.5458 -10.194 -10.4988
RightFoot  -7.91562 -0.292867 7.97799
RightToes  5.82063e-011 0 -3.6325e-017
Spine  19.3349 -1.93347 -6.44822
Spine1  -0.542621 -4.07661 7.44255
HEad  -6.35641 -19.0854 5.37222
LeftShoulder1  2.26605 -5.15796 -19.6912
LeftArm  53.9923 -61.0151 -67.0528
LeftForeArm  -6.45431 -15.4424 -13.0371
LeftHand  0.201635 -2.53838 -2.75804
RightShoulder  7.76016 11.0192 46.7748
RightArm  4.81204 0.997198 13.0377
RightForeArm  -26.9977 41.7643 11.5033
RightHand  0.386224 0.45023 7.65457
LeftUpLeg  -0.877756 15.5345 17.8999
LeftLeg  39.5492 -6.24561 -5.12427
LeftFoot  -36.393 -4.85588 -22.5876
LeftToes  -3.90176e-010 -2.48536e-010 1.05482e-011
1539
root  -82.539 34.0139 -24.0656 -176.433 50.6921 177.391
RightUpLeg  -49.2438 -18.6555 -7.07379
RightLeg  48.0612 -11.3844 -13.5586
RightFoot  -9.63067 -0.209473 9.61511
RightToes  5.82063e-011 0 -3.6325e-017
Spine  18.6995 -2.61942 -4.85505
Spine1  -1.88051 -4.5336 8.44109
HEad  -6.70088 -16.4432 2.57815
LeftShoulder1  2.17023 -5.13288 -18.5787
LeftArm  49.7563 -60.4313 -64.3399
LeftForeArm  -3.49172 -14.5559 -13.5706
LeftHand  0.167125 -2.48292 -2.27206
RightShoulder  8.35448 12.3857 45.9952
RightArm  5.21327 2.19418 13.2583
RightForeArm  -28.2361 40.7365 11.1809
RightHand  0.375062 0.395279 7.51015
LeftUpLeg  4.19493 15.3217 19.6594
LeftLeg  32.2861 -5.5019 -3.38368
LeftFoot  -34.0716 -4.97941 -25.4171
LeftToes  -3.90176e-010 -2.48536e-010 1.05482e-011
1540
root  -80.421 34.0758 -24.6078 -174.042 51.2086 177.962
RightUpLeg  -49.2857 -20.4425 -5.18998
RightLeg  51.2294 -11.1193 -14.7873
RightFoot  -11.2616 -0.086876 14.3075
RightToes  5.82063e-011 0 -3.6325e-017
Spine  16.92 -3.53833 -3.81766
Spine1  -2.28382 -5.56671 10.7521
HEad  -6.60825 -13.6712 -0.60902
LeftShoulder1  2.11897 -5.19379 -17.7515
LeftArm  28.1305 -59.9778 -58.1575
LeftForeArm  7.4212 -7.8459 -16.7228
LeftHand  0.163133 -2.30062 -2.28114
RightShoulder  8.86366 13.8239 44.6865
RightArm  6.43744 4.1943 13.457
RightForeArm  -28.9604 39.4318 10.7511
RightHand  0.402955 0.605931 7.7608
LeftUpLeg  7.72525 12.0962 20.4157
LeftLeg  26.3299 -2.69878 -1.11212
LeftFoot  -29.0332 -4.70583 -30.6674
LeftToes  -3.90176e-010 -2.48536e-010 1.05482e-011
1541
root  -78.3272 34.0635 -25.0795 -172.568 52.7949 178.096
RightUpLeg  -49.7839 -21.0216 -3.08044
RightLeg  54.2529 -8.53201 -12.8856
RightFoot  -13.8924 0.151207 11.0072
RightToes  5.82063e-011 0 -3.6325e-017
Spine  15.5936 -3.81556 -2.72821
Spine1  -1.88744 -5.97639 12.7079
HEad  -6.78942 -11.1007 -2.82924
LeftShoulder1  2.04644 -5.07012 -17.2151
LeftArm  2.34384 -59.0527 -49.7918
LeftForeArm  18.9905 0.650218 -17.3202
LeftHand  0.167133 -1.80483 -2.54882
RightShoulder  9.58111 15.579 43.7988
RightArm  6.40852 7.48215 12.9209
RightForeArm  -28.5446 36.5771 9.79118
RightHand  0.542657 1.54333 8.94862
LeftUpLeg  9.81033 8.22454 20.0424
LeftLeg  24.647 2.90312 1.79005
LeftFoot  -21.5624 -3.13544 -35.3998
LeftToes  -3.90176e-010 -2.48536e-010 1.05482e-011
1542
root  -76.245 33.9578 -25.4863 -171.257 55.8034 178.54
RightUpLeg  -49.2935 -19.1483 -1.80649
RightLeg  57.1126 -7.23826 -12.3053
RightFoot  -17.0867 0.492893 12.0997
RightToes  5.82063e-011 0 -3.6325e-017
Spine  15.1281 -3.50489 -0.646936
Spine1  -1.69364 -5.32416 12.5646
HEad  -7.21818 -8.60976 -4.51145
LeftShoulder1  1.95159 -4.8054 -16.8003
LeftArm  -16.5537 -55.9177 -40.7537
LeftForeArm  24.5951 5.10559 -15.4195
LeftHand  0.193065 -1.64023 -3.05396
RightShoulder  10.8021 18.2774 43.1908
RightArm  4.98435 11.7079 11.4063
RightForeArm  -30.6717 32.9332 8.78455
RightHand  0.636763 2.22163 9.51723
LeftUpLeg  8.953 4.10142 17.991
LeftLeg  30.163 10.6731 6.97411
LeftFoot  -10.0927 0.36491 -27.5004
LeftToes  -3.90176e-010 -2.48536e-010 1.05482e-011
1543
root  -74.505 33.6953 -25.9527 -168.624 58.4331 -179.016
RightUpLeg  -48.4817 -16.9917 -0.215677
RightLeg  59.9338 -6.24844 -12.0068
RightFoot  -20.3536 0.818829 12.1074
RightToes  5.82063e-011 0 -3.6325e-017
Spine  15.6386 -3.52295 4.28555
Spine1  -1.01257 -4.41841 11.407
HEad  -8.72514 -6.34005 -6.48622
LeftShoulder1  1.88882 -4.28061 -17.6414
LeftArm  -23.63 -51.9738 -31.6583
LeftForeArm  22.2234 5.35474 -14.8714
LeftHand  0.198981 -1.25921 -3.37156
RightShoulder  12.2051 22.008 41.48
RightArm  0.398177 17.016 8.83532
RightForeArm  -32.5893 27.8467 7.49507
RightHand  0.772412 2.86043 10.6225
LeftUpLeg  4.15807 1.51208 16.3301
LeftLeg  42.0193 7.90591 7.94263
LeftFoot  -1.10925 1.09786 -12.1537
LeftToes  -3.90176e-010 -2.48536e-010 1.05482e-011
1544
root  -72.7666 33.452 -26.4309 -167.021 60.8587 -176.759
RightUpLeg  -46.0848 -14.8453 0.640638
RightLeg  62.3463 -5.50664 -11.8302
RightFoot  -24.1598 1.28355 12.844
RightToes  5.82063e-011 0 -3.6325e-017
Spine  17.032 -3.13574 8.98973
Spine1  -0.251731 -2.8434 9.29237
HEad  -10.7984 -5.3777 -7.89951
LeftShoulder1  1.8574 -3.72758 -19.173
LeftArm  -24.0719 -48.1485 -24.0966
LeftForeArm  17.5154 3.74925 -15.6497
LeftHand  0.178434 -0.709205 -3.34444
RightShoulder  12.894 25.7612 37.7746
RightArm  -10.1854 22.8942 5.48492
RightForeArm  -29.7823 20.3806 7.83527
RightHand  0.788835 3.26182 10.3173
LeftUpLeg  -1.62493 1.13118 14.7415
LeftLeg  55.4666 -0.0204676 0.463939
LeftFoot  -3.46536 0.789793 -11.1455
LeftToes  -3.90176e-010 -2.48536e-010 1.05482e-011
